# File exported by ZBrush version 2021
# www.zbrush.com
#Vertex Count 162
#UV Vertex Count 173
#Face Count 160
#Auto scale x=1.000000 y=1.000000 z=1.000000
#Auto offset x=-0.000000 y=-0.000000 z=-0.000000
mtllib bone_01.mtl
usemtl defaultMat
v -0.0968115 0.56173068 0.11288007
vn -0.555819 0.253632 0.791667
v 0.02111132 0.45631039 0.14331205
vn -0.126500 0.430409 0.893726
v 0.17739842 0.5658831 0.12237559
vn 0.508930 0.315237 0.801009
v -0.16652546 0.55221927 -0.00000419
vn -0.918813 0.394353 -0.016373
v 0.02798993 0.54009431 -0.0273557
vn -0.114489 0.992137 0.050558
v 0.23904021 0.57719129 -0.00001471
vn 0.911220 0.411844 -0.007925
v -0.10264975 0.54919606 -0.10187401
vn -0.478018 0.290212 -0.829021
v 0.0163844 0.47350096 -0.12138594
vn -0.051437 0.467951 -0.882256
v 0.17748145 0.56571435 -0.12065527
vn 0.402870 0.357659 -0.842482
v -0.02629135 -0.00001854 0.10775607
vn -0.661372 0.009069 0.750004
v 0.06082279 -0.01492129 0.12120941
vn -0.040751 0.029604 0.998731
v 0.14639513 -0.00002536 0.10766377
vn 0.698436 0.001279 0.715672
v 0.187679 -0.00004471 -0.00000066
vn 0.999999 -0.000576 0.000819
v 0.14656671 -0.00003898 -0.10766778
vn 0.720287 -0.000485 -0.693676
v 0.06279453 -0.00006198 -0.13495977
vn -0.000013 -0.000151 -1.000000
v -0.02633475 -0.00005953 -0.10775832
vn -0.693062 -0.000190 -0.720878
v -0.07304604 -0.00005791 -0.00000037
vn -1.000000 -0.000274 0.000187
v -0.10680584 -0.56263893 0.12436444
vn -0.572747 -0.235850 0.785070
v 0.03045478 -0.5459457 0.14113163
vn 0.064325 -0.656457 0.751616
v 0.17936761 -0.57453781 0.10411272
vn 0.521856 -0.266523 0.810328
v -0.16621071 -0.55368709 -0.00000505
vn -0.944347 -0.326944 -0.036269
v 0.02618698 -0.54544729 -0.00159023
vn -0.095820 -0.974491 -0.202943
v 0.23123545 -0.59017777 0.00175478
vn 0.877085 -0.480332 -0.001851
v -0.10689403 -0.56269067 -0.12373033
vn -0.509373 -0.245058 -0.824915
v 0.006865 -0.43979379 -0.12583234
vn -0.025986 -0.482449 -0.875539
v 0.17675428 -0.5681076 -0.1141064
vn 0.454264 -0.325305 -0.829349
v 0.04993693 0.26480582 0.12553621
vn -0.035365 -0.089397 0.995368
v -0.05733098 0.32108247 0.12047327
vn -0.648971 -0.177488 0.739821
v 0.163623 0.31253778 0.11933782
vn 0.655867 -0.106568 0.747316
v 0.21250091 0.30969694 -0.00000879
vn 0.988133 -0.153596 0.001263
v 0.16382542 0.31235766 -0.11939065
vn 0.680359 -0.097070 -0.726422
v 0.05137094 0.28952023 -0.14479556
vn 0.000871 -0.006437 -0.999979
v -0.05655885 0.32087177 -0.12057437
vn -0.670934 -0.162602 -0.723470
v -0.1025705 0.30565512 0.00000001
vn -0.971410 -0.237408 0.000015
v 0.05612662 -0.31484794 0.14704589
vn 0.004992 0.088425 0.996070
v -0.0564498 -0.32098731 0.12056493
vn -0.680703 0.171880 0.712109
v 0.16346743 -0.3127295 0.11932286
vn 0.681503 0.103419 0.724471
v 0.21213805 -0.31009089 0.00000342
vn 0.988318 0.152407 0.000342
v 0.16351452 -0.31264761 -0.11930243
vn 0.685257 0.098569 -0.721600
v 0.04809299 -0.26735526 -0.14232072
vn -0.039616 0.017615 -0.999060
v -0.05639525 -0.32133135 -0.1205831
vn -0.687705 0.170145 -0.705771
v -0.10238503 -0.3061887 -0.000003
vn -0.971686 0.236275 -0.000610
v -0.05034181 0.54454726 0.13240799
vn 0.111582 0.472552 0.874211
v 0.02711751 0.48379027 0.12731656
vn -0.140279 0.943217 0.301104
v -0.08831971 0.60035252 -0.00138075
vn 0.225653 0.973968 -0.021610
v -0.14975014 0.55472725 0.07286144
vn -0.823284 0.356896 0.441393
v -0.07221829 0.59933143 0.08155261
vn 0.299767 0.905774 0.299521
v 0.11839238 0.57945656 0.13032765
vn -0.119123 0.446744 0.886696
v 0.21901564 0.59060764 0.07593113
vn 0.792566 0.398416 0.461631
v 0.15745398 0.64117991 0.00862822
vn -0.376854 0.924927 0.049913
v 0.14331714 0.64526194 0.05129402
vn -0.395028 0.861412 0.319252
v 0.01790799 0.50224429 -0.11127314
vn -0.130401 0.917747 -0.375149
v -0.0454975 0.54117387 -0.12790906
vn 0.151216 0.532295 -0.832944
v -0.15391922 0.53358745 -0.08228953
vn -0.809902 0.352353 -0.468941
v -0.07639459 0.59446519 -0.07268618
vn 0.092054 0.910990 -0.402025
v 0.21922269 0.5903759 -0.07613633
vn 0.758997 0.440356 -0.479594
v 0.11677318 0.56702661 -0.1149772
vn -0.156045 0.455046 -0.876689
v 0.13639448 0.64328539 -0.04842207
vn -0.226414 0.889856 -0.396098
v 0.01412001 -0.00808363 0.12147221
vn -0.163223 0.030991 0.986102
v 0.05793356 0.1276538 0.12234301
vn -0.056364 -0.032324 0.997887
v -0.00751762 0.30227264 0.13753362
vn -0.171672 -0.119392 0.977893
v -0.03401355 0.15990404 0.11197024
vn -0.650185 -0.092294 0.754149
v 0.008872 0.14074054 0.12397883
vn -0.129308 -0.051917 0.990244
v 0.10723955 -0.00156963 0.12843796
vn 0.169044 0.011613 0.985540
v 0.15160042 0.15408751 0.11150229
vn 0.681158 -0.064881 0.729255
v 0.11027525 0.30082827 0.14167945
vn 0.140564 -0.102336 0.984769
v 0.10776801 0.14658221 0.13009439
vn 0.126064 -0.044808 0.991010
v 0.17553454 -0.0000334 0.06012228
vn 0.934780 -0.000435 0.355226
v 0.19388625 0.15612411 -0.00000434
vn 0.996814 -0.079761 0.001003
v 0.19888928 0.31216704 0.06541499
vn 0.906422 -0.133001 0.400887
v 0.18180044 0.15595251 0.06186221
vn 0.929346 -0.075576 0.361391
v 0.17564201 -0.0000419 -0.06012494
vn 0.935239 -0.000600 -0.354015
v 0.15178179 0.15400514 -0.11152842
vn 0.713847 -0.069291 -0.696866
v 0.19902008 0.31204593 -0.06545015
vn 0.907128 -0.133372 -0.399161
v 0.18191617 0.15589682 -0.06187961
vn 0.929902 -0.075717 -0.359930
v 0.10759619 -0.00004993 -0.13004641
vn 0.323157 -0.000274 -0.946345
v 0.0603351 0.14707921 -0.14326748
vn -0.000840 -0.050635 -0.998717
v 0.11226595 0.30343747 -0.14987926
vn 0.206221 -0.049837 -0.977235
v 0.10937461 0.14918357 -0.13671563
vn 0.301848 -0.058260 -0.951574
v 0.01622584 -0.00006234 -0.13010677
vn -0.310838 -0.000132 -0.950463
v -0.03403718 0.15990795 -0.11197025
vn -0.697131 -0.095883 -0.710504
v -0.00621694 0.30914253 -0.14971229
vn -0.226930 -0.071818 -0.971259
v 0.01030369 0.15333913 -0.13701018
vn -0.298722 -0.072261 -0.951601
v -0.05911213 -0.00006202 -0.0601853
vn -0.922384 -0.000253 -0.386275
v -0.07889065 0.15620434 0
vn -0.994927 -0.100603 0.000147
v -0.09004506 0.31369322 -0.0662393
vn -0.890297 -0.213316 -0.402327
v -0.06600515 0.15873026 -0.06217416
vn -0.919571 -0.099773 -0.380045
v -0.05907625 -0.00003527 0.06018383
vn -0.922312 -0.000235 0.386445
v -0.09004817 0.31369054 0.06623935
vn -0.891525 -0.214008 0.399228
v -0.06598421 0.15872842 0.06217419
vn -0.919935 -0.100305 0.379022
v -0.05300971 -0.56543207 0.1410067
vn -0.009986 -0.584155 0.811581
v 0.0406958 -0.47873339 0.16044865
vn 0.015386 -0.064944 0.997770
v -0.00585022 -0.31200465 0.14974586
vn -0.227601 0.117938 0.966586
v -0.09325396 -0.48405802 0.1295194
vn -0.657079 0.143143 0.740106
v -0.0320413 -0.47461345 0.16554553
vn -0.208401 0.014969 0.977929
v 0.11906077 -0.57220053 0.12678276
vn 0.065731 -0.533256 0.843396
v 0.1787973 -0.47997313 0.12747411
vn 0.638627 -0.002109 0.769514
v 0.11203924 -0.30414137 0.15022936
vn 0.239886 0.095991 0.966044
v 0.11373373 -0.46963229 0.16434365
vn 0.232759 -0.066765 0.970240
v 0.21922847 -0.59419679 0.07011625
vn 0.793573 -0.418206 0.441979
v 0.2431796 -0.45884865 0.00000523
vn 0.997783 0.066190 -0.006931
v 0.19862344 -0.31245705 0.06541241
vn 0.907218 0.132292 0.399318
v 0.2248778 -0.46939766 0.06911055
vn 0.899871 0.059265 0.432110
v 0.21483001 -0.59632617 -0.06620816
vn 0.774682 -0.423538 -0.469557
v 0.17885346 -0.47978514 -0.12744292
vn 0.630592 -0.008511 -0.776068
v 0.198642 -0.31239786 -0.0653987
vn 0.907437 0.132257 -0.398832
v 0.22490716 -0.46926915 -0.06908963
vn 0.902603 0.050791 -0.427467
v 0.11234348 -0.5580945 -0.11845415
vn -0.221673 -0.436547 -0.871945
v 0.00145631 -0.35165226 -0.12952666
vn -0.058888 -0.120821 -0.990926
v 0.11213479 -0.30410978 -0.15021619
vn 0.197392 0.063356 -0.978275
v 0.11257246 -0.46665108 -0.16293397
vn 0.013606 -0.085196 -0.996271
v -0.05915414 -0.54560846 -0.13025468
vn 0.397267 -0.493345 -0.773815
v -0.09319269 -0.48447743 -0.12949918
vn -0.653557 0.141476 -0.743537
v -0.01041274 -0.29126825 -0.14247782
vn -0.267452 0.076114 -0.960560
v -0.03740633 -0.4623911 -0.15752235
vn -0.040673 -0.029186 -0.998746
v -0.14931304 -0.57676959 -0.07754546
vn -0.831696 -0.335664 -0.442279
v -0.15001066 -0.44257479 -0.00000458
vn -0.971417 0.237379 -0.000873
v -0.08985778 -0.31423071 -0.06625249
vn -0.891033 0.212942 -0.400893
v -0.13439253 -0.46203088 -0.07049243
vn -0.880039 0.213927 -0.423989
v -0.14938394 -0.5763154 0.07759532
vn -0.852244 -0.322590 0.411845
v -0.08988133 -0.31400594 0.06624046
vn -0.891309 0.213245 0.400119
v -0.13443695 -0.46167597 0.07047408
vn -0.880407 0.214367 0.423001
v -0.08481921 -0.62850278 0.00166668
vn 0.181669 -0.956565 -0.227989
v 0.02236772 -0.54429143 0.08099697
vn -0.016139 -0.983451 0.180456
v -0.07155682 -0.64369446 0.05817689
vn 0.129301 -0.968024 0.214965
v 0.13568078 -0.64774292 -0.00380658
vn -0.311060 -0.949225 -0.047054
v 0.14379577 -0.63184559 0.07964178
vn -0.222131 -0.928840 0.296502
v 0.0066339 -0.49077135 -0.08726331
vn -0.052151 -0.839975 -0.540113
v -0.07547527 -0.61005151 -0.06746453
vn 0.341171 -0.834679 -0.432334
v 0.14080083 -0.63931793 -0.06937871
vn -0.345395 -0.807264 -0.478567
v 0.02381227 0.36181059 0.13641534
vn -0.022536 0.003921 0.999738
v -0.09341356 0.48394465 0.12953458
vn -0.638164 -0.112998 0.761563
v -0.03206583 0.47399339 0.16558656
vn -0.133636 -0.019416 0.990840
v 0.17896126 0.47971361 0.12749764
vn 0.625914 -0.035942 0.779063
v 0.11381699 0.46935132 0.16441656
vn 0.091251 -0.006720 0.995805
v 0.2437018 0.45816722 -0.00001341
vn 0.996284 -0.086118 0.001413
v 0.22523376 0.46890565 0.0691148
vn 0.897333 -0.077285 0.434536
v 0.17926292 0.47940492 -0.12757828
vn 0.614120 -0.012500 -0.789114
v 0.22543254 0.46869957 -0.06916846
vn 0.897630 -0.076742 -0.434017
v 0.02806681 0.38895618 -0.13070718
vn -0.010946 0.150650 -0.988527
v 0.11602083 0.4698838 -0.15801262
vn 0.019031 0.094045 -0.995386
v -0.09320412 0.48422935 -0.12897752
vn -0.615215 -0.092356 -0.782931
v -0.02856414 0.47742873 -0.15886244
vn -0.059158 0.086643 -0.994482
v -0.15031838 0.44159877 0.00000002
vn -0.966197 -0.257362 0.015103
v -0.13468423 0.46112155 -0.07047268
vn -0.873705 -0.228444 -0.429479
v -0.13469094 0.46112003 0.07047276
vn -0.875876 -0.203802 0.437385
v 0.06249802 -0.15942287 0.13283014
vn 0.000876 0.083498 0.996508
v -0.03394952 -0.15997822 0.11196573
vn -0.685838 0.101267 0.720674
v 0.01048241 -0.15445184 0.1361335
vn -0.205834 0.095793 0.973887
v 0.15150874 -0.15418897 0.11149501
vn 0.699188 0.070976 0.711406
v 0.10861817 -0.15392078 0.1318427
vn 0.218344 0.076117 0.972899
v 0.1937004 -0.15630295 0.00000169
vn 0.996907 0.078586 0.000523
v 0.18165896 -0.15608611 0.061861
vn 0.929701 0.074726 0.360655
v 0.15161494 -0.15416108 -0.11148491
vn 0.714724 0.068640 -0.696030
v 0.18171879 -0.15606445 -0.06185422
vn 0.930023 0.074515 -0.359868
v 0.06034 -0.14732714 -0.1432302
vn -0.013687 0.044069 -0.998935
v 0.10928964 -0.1493833 -0.13666853
vn 0.302231 0.057477 -0.951500
v -0.03395126 -0.16014605 -0.11197471
vn -0.700466 0.092800 -0.707626
v 0.01036279 -0.15358427 -0.13699241
vn -0.303199 0.062706 -0.950862
v -0.07880383 -0.15643601 -0.00000148
vn -0.994997 0.099907 -0.000068
v -0.06591367 -0.15897837 -0.06218076
vn -0.919679 0.099133 -0.379951
v -0.06590153 -0.15886953 0.06217481
vn -0.919737 0.099323 0.379760
# The following MRGB block contains ZBrush Vertex Color (Polypaint) and masking output as 4 hexadecimal values per vertex. The vertex color format is MMRRGGBB with up to 64 entries per MRGB line.
#MRGB ffd49b63ffd69f69ffd49f6bffd49b64ffd8aa7effdbb38cffd9aa7effd49e68ffdbae83ffd7a06dffd39960ffd6a16dffd49d68ffd6a06cffd3985dffd8aa7cffd39356ffd59a62ffd7a87affd2975cffd69f6bffd18a46ffd8a97bffd49d67ffd8ab7dffdbb38bffd39b63ffd8a069ffd8a574ffdbb28cffd9a979ffd7a06affd8a97bffd6a16effd2985fffd5a06affd6a471ffd9ac7fffd59f6affd29354ffd59d68ffd19151ffd6a270ffdbb48cffd59c65ffd2985cffdbb58fffdbb28affd9ae83ffdbb188ffdbb58fffd59d66ffd6a26effdbaf86ffd8ac81ffdbb38bffd9a779ffdbb086ffd49e6affd49a63ffd7a270ffd9a372ffd9a87affd69f69
#MRGB ffd8a473ffd59d66ffd49d66ffd5a06cffd9ab7fffdaac82ffd9a87affd59e68ffd9a576ffdbb088ffd9a87cffd69e6affd3985fffd6a06dffd59e6affd39a61ffd5a271ffd8a472ffd39559ffdbab82ffd49b65ffdbaf86ffd9a577ffd39557ffd49d65ffd49a60ffd8ab80ffd39559ffd5a06effd39960ffdab592ffdab18cffd8a87affd79f6bffd29b62ffd7a676ffd18c48ffdaac80ffdbb48fffd3965bffd39c67ffd6a371ffd2955bffdbb590fad6a06dffd1955affd39c67ffd7a370ffd18f51ffd3965cffd19357ffd9a779ffd1904effd9aa7cffd59e68ffd69e69ffd59960ffd49a61ffd19050ffd18d4bffd29254ffd9b089ffd59d66ffdbb590
#MRGB ffdab189ffd29151ffd3995fffd18f4dffd59e68ffd59f6cffd39c66ffdbb28dffd6a878ffd8a778ffdbb28dffd59e68ffd8a472ffd6a06dffd59c63ffd4985effdab085ffd29254ffd2985fffd5a06dffd6a06affd8a471ffd49c66ffd5a26fffd8a572ffd49c66ffd5a06cffd4975dffd4985fffd8a778ffd59d66ffd29050ffdbb089ffd3965b
# End of MRGB block 
vt 0.79645 0.30249
vt 0.82401 0.29304
vt 0.81737 0.33633
vt 0.78463 0.33556
vt 0.85158 0.2836
vt 0.85012 0.3371
vt 0.84865 0.39059
vt 0.81073 0.37962
vt 0.7728 0.36864
vt 0.92481 0.2996
vt 0.91879 0.34557
vt 0.99804 0.31561
vt 0.98746 0.35405
vt 0.97687 0.39248
vt 0.91276 0.39154
vt 0.80657 0.41638
vt 0.77522 0.405
vt 0.83793 0.42776
vt 0.82721 0.46493
vt 0.80242 0.45315
vt 0.77763 0.44136
vt 0.8906 0.4253
vt 0.94327 0.42283
vt 0.90967 0.45318
vt 0.86844 0.45906
vt 0.48171 0.30499
vt 0.46237 0.2638
vt 0.57771 0.24623
vt 0.5899 0.28671
vt 0.44304 0.22261
vt 0.56552 0.20575
vt 0.688 0.18889
vt 0.69305 0.22866
vt 0.6981 0.26843
vt 0.43334 0.18492
vt 0.579 0.17159
vt 0.42364 0.14723
vt 0.59248 0.13743
vt 0.76132 0.12763
vt 0.72466 0.15826
vt 0.76248 0.84948
vt 0.72144 0.81706
vt 0.83425 0.72152
vt 0.87881 0.74343
vt 0.6804 0.78464
vt 0.78969 0.6996
vt 0.89898 0.61457
vt 0.94706 0.62597
vt 0.99515 0.63738
vt 0.63229 0.74589
vt 0.74239 0.67329
vt 0.58417 0.70714
vt 0.69509 0.64698
vt 0.80602 0.58682
vt 0.8525 0.6007
vt 0.56704 0.66956
vt 0.66594 0.61779
vt 0.5499 0.63197
vt 0.63679 0.5886
vt 0.72367 0.54522
vt 0.76485 0.56602
vt 0.53611 0.58781
vt 0.62172 0.54808
vt 0.52232 0.54365
vt 0.60666 0.50756
vt 0.691 0.47147
vt 0.70734 0.50835
vt 0.512 0.48411
vt 0.59553 0.45308
vt 0.50169 0.42457
vt 0.5844 0.39859
vt 0.66712 0.37261
vt 0.67906 0.42204
vt 0.4917 0.36478
vt 0.58715 0.34265
vt 0.68261 0.32052
vt 0.21927 0.41932
vt 0.19242 0.40867
vt 0.2399 0.37761
vt 0.26532 0.40098
vt 0.16558 0.39802
vt 0.21449 0.35424
vt 0.2634 0.31045
vt 0.28738 0.34655
vt 0.31136 0.38264
vt 0.12861 0.39778
vt 0.17993 0.34229
vt 0.09164 0.39755
vt 0.14537 0.33035
vt 0.1991 0.26316
vt 0.23125 0.2868
vt 0.05771 0.42655
vt 0.10525 0.33768
vt 0.02379 0.45555
vt 0.06514 0.34501
vt 0.10649 0.23448
vt 0.1528 0.24882
vt 0.01287 0.49388
vt 0.03574 0.35817
vt 0.00195 0.53222
vt 0.00634 0.37132
vt 0.01073 0.21042
vt 0.05861 0.22245
vt 0.07317 0.55418
vt 0.16909 0.63268
vt 0.12218 0.63966
vt 0.14439 0.57614
vt 0.21599 0.6257
vt 0.28759 0.67525
vt 0.265 0.71118
vt 0.24241 0.7471
vt 0.17246 0.56557
vt 0.23412 0.59869
vt 0.20053 0.555
vt 0.25225 0.57168
vt 0.30397 0.58835
vt 0.29578 0.6318
vt 0.2146 0.52175
vt 0.26693 0.5286
vt 0.22866 0.4885
vt 0.28162 0.48553
vt 0.33457 0.48255
vt 0.31927 0.53545
vt 0.22397 0.45391
vt 0.27347 0.44325
vt 0.32297 0.4326
vt 0.18194 0.47995
vt 0.18718 0.44431
vt 0.13521 0.47139
vt 0.1504 0.43471
vt 0.0795 0.46347
vt 0.10406 0.43063
vt 0.1772 0.52276
vt 0.1398 0.52377
vt 0.07633 0.50882
vt 0.75853 0.26085
vt 0.74727 0.28546
vt 0.76979 0.23625
vt 0.82474 0.22893
vt 0.87968 0.22162
vt 0.96726 0.49001
vt 0.99659 0.4765
vt 0.93792 0.50352
vt 0.89788 0.51176
vt 0.85785 0.52
vt 0.81664 0.51254
vt 0.77544 0.50508
vt 0.75488 0.48075
vt 0.73432 0.45642
vt 0.72714 0.41352
vt 0.71996 0.37063
vt 0.73362 0.32804
vt 0.37488 0.30517
vt 0.39654 0.34382
vt 0.35322 0.26653
vt 0.33229 0.23586
vt 0.31137 0.20519
vt 0.26436 0.1782
vt 0.21736 0.1512
vt 0.32823 0.06792
vt 0.37593 0.10757
vt 0.17309 0.12869
vt 0.12883 0.10618
vt 0.24693 0.00195
vt 0.28758 0.03493
vt 0.41602 0.69037
vt 0.41329 0.72712
vt 0.41875 0.65361
vt 0.41595 0.60981
vt 0.41314 0.566
vt 0.41564 0.50978
vt 0.41813 0.45356
vt 0.40733 0.39869
g Group9799
f 1/1/1 43/2/43 47/3/47 46/4/46
f 43/2/43 2/5/2 44/6/44 47/3/47
f 47/3/47 44/6/44 5/7/5 45/8/45
f 46/4/46 47/3/47 45/8/45 4/9/4
f 2/5/2 48/10/48 51/11/51 44/6/44
f 48/10/48 3/12/3 49/13/49 51/11/51
f 51/11/51 49/13/49 6/14/6 50/15/50
f 44/6/44 51/11/51 50/15/50 5/7/5
f 4/9/4 45/8/45 55/16/55 54/17/54
f 45/8/45 5/7/5 52/18/52 55/16/55
f 55/16/55 52/18/52 8/19/8 53/20/53
f 54/17/54 55/16/55 53/20/53 7/21/7
f 5/7/5 50/15/50 58/22/58 52/18/52
f 50/15/50 6/14/6 56/23/56 58/22/58
f 58/22/58 56/23/56 9/24/9 57/25/57
f 52/18/52 58/22/58 57/25/57 8/19/8
g Group28507
f 10/26/10 59/27/59 63/28/63 62/29/62
f 59/27/59 11/30/11 60/31/60 63/28/63
f 63/28/63 60/31/60 27/32/27 61/33/61
f 62/29/62 63/28/63 61/33/61 28/34/28
f 11/30/11 64/35/64 67/36/67 60/31/60
f 64/35/64 12/37/12 65/38/65 67/36/67
f 67/36/67 65/38/65 29/39/29 66/40/66
f 60/31/60 67/36/67 66/40/66 27/32/27
f 12/41/12 68/42/68 71/43/71 65/44/65
f 68/42/68 13/45/13 69/46/69 71/43/71
f 71/43/71 69/46/69 30/47/30 70/48/70
f 65/44/65 71/43/71 70/48/70 29/49/29
f 13/45/13 72/50/72 75/51/75 69/46/69
f 72/50/72 14/52/14 73/53/73 75/51/75
f 75/51/75 73/53/73 31/54/31 74/55/74
f 69/46/69 75/51/75 74/55/74 30/47/30
f 14/52/14 76/56/76 79/57/79 73/53/73
f 76/56/76 15/58/15 77/59/77 79/57/79
f 79/57/79 77/59/77 32/60/32 78/61/78
f 73/53/73 79/57/79 78/61/78 31/54/31
f 15/58/15 80/62/80 83/63/83 77/59/77
f 80/62/80 16/64/16 81/65/81 83/63/83
f 83/63/83 81/65/81 33/66/33 82/67/82
f 77/59/77 83/63/83 82/67/82 32/60/32
f 16/64/16 84/68/84 87/69/87 81/65/81
f 84/68/84 17/70/17 85/71/85 87/69/87
f 87/69/87 85/71/85 34/72/34 86/73/86
f 81/65/81 87/69/87 86/73/86 33/66/33
f 17/70/17 88/74/88 90/75/90 85/71/85
f 88/74/88 10/26/10 62/29/62 90/75/90
f 90/75/90 62/29/62 28/34/28 89/76/89
f 85/71/85 90/75/90 89/76/89 34/72/34
f 18/77/18 91/78/91 95/79/95 94/80/94
f 91/78/91 19/81/19 92/82/92 95/79/95
f 95/79/95 92/82/92 35/83/35 93/84/93
f 94/80/94 95/79/95 93/84/93 36/85/36
f 19/81/19 96/86/96 99/87/99 92/82/92
f 96/86/96 20/88/20 97/89/97 99/87/99
f 99/87/99 97/89/97 37/90/37 98/91/98
f 92/82/92 99/87/99 98/91/98 35/83/35
f 20/88/20 100/92/100 103/93/103 97/89/97
f 100/92/100 23/94/23 101/95/101 103/93/103
f 103/93/103 101/95/101 38/96/38 102/97/102
f 97/89/97 103/93/103 102/97/102 37/90/37
f 23/94/23 104/98/104 107/99/107 101/95/101
f 104/98/104 26/100/26 105/101/105 107/99/107
f 107/99/107 105/101/105 39/102/39 106/103/106
f 101/95/101 107/99/107 106/103/106 38/96/38
f 26/100/26 108/104/108 111/105/111 105/106/105
f 108/104/108 25/107/25 109/108/109 111/105/111
f 111/105/111 109/108/109 40/109/40 110/110/110
f 105/106/105 111/105/111 110/110/110 39/111/39
f 25/107/25 112/112/112 115/113/115 109/108/109
f 112/112/112 24/114/24 113/115/113 115/113/115
f 115/113/115 113/115/113 41/116/41 114/117/114
f 109/108/109 115/113/115 114/117/114 40/109/40
f 24/114/24 116/118/116 119/119/119 113/115/113
f 116/118/116 21/120/21 117/121/117 119/119/119
f 119/119/119 117/121/117 42/122/42 118/123/118
f 113/115/113 119/119/119 118/123/118 41/116/41
f 21/120/21 120/124/120 122/125/122 117/121/117
f 120/124/120 18/77/18 94/80/94 122/125/122
f 122/125/122 94/80/94 36/85/36 121/126/121
f 117/121/117 122/125/122 121/126/121 42/122/42
g Group9799
f 21/120/21 123/127/123 125/128/125 120/124/120
f 123/127/123 22/129/22 124/130/124 125/128/125
f 125/128/125 124/130/124 19/81/19 91/78/91
f 120/124/120 125/128/125 91/78/91 18/77/18
f 22/129/22 126/131/126 127/132/127 124/130/124
f 126/131/126 23/94/23 100/92/100 127/132/127
f 127/132/127 100/92/100 20/88/20 96/86/96
f 124/130/124 127/132/127 96/86/96 19/81/19
f 24/114/24 112/112/112 129/133/129 116/118/116
f 112/112/112 25/107/25 128/134/128 129/133/129
f 129/133/129 128/134/128 22/129/22 123/127/123
f 116/118/116 129/133/129 123/127/123 21/120/21
f 25/107/25 108/104/108 130/135/130 128/134/128
f 108/104/108 26/100/26 104/98/104 130/135/130
f 130/135/130 104/98/104 23/94/23 126/131/126
f 128/134/128 130/135/130 126/131/126 22/129/22
g Group28507
f 28/34/28 61/33/61 133/136/133 132/137/132
f 61/33/61 27/32/27 131/138/131 133/136/133
f 133/136/133 131/138/131 2/5/2 43/2/43
f 132/137/132 133/136/133 43/2/43 1/1/1
f 27/32/27 66/40/66 135/139/135 131/138/131
f 66/40/66 29/39/29 134/140/134 135/139/135
f 135/139/135 134/140/134 3/12/3 48/10/48
f 131/138/131 135/139/135 48/10/48 2/5/2
f 29/49/29 70/48/70 137/141/137 134/142/134
f 70/48/70 30/47/30 136/143/136 137/141/137
f 137/141/137 136/143/136 6/14/6 49/13/49
f 134/142/134 137/141/137 49/13/49 3/12/3
f 30/47/30 74/55/74 139/144/139 136/143/136
f 74/55/74 31/54/31 138/145/138 139/144/139
f 139/144/139 138/145/138 9/24/9 56/23/56
f 136/143/136 139/144/139 56/23/56 6/14/6
f 31/54/31 78/61/78 141/146/141 138/145/138
f 78/61/78 32/60/32 140/147/140 141/146/141
f 141/146/141 140/147/140 8/19/8 57/25/57
f 138/145/138 141/146/141 57/25/57 9/24/9
f 32/60/32 82/67/82 143/148/143 140/147/140
f 82/67/82 33/66/33 142/149/142 143/148/143
f 143/148/143 142/149/142 7/21/7 53/20/53
f 140/147/140 143/148/143 53/20/53 8/19/8
f 33/66/33 86/73/86 145/150/145 142/149/142
f 86/73/86 34/72/34 144/151/144 145/150/145
f 145/150/145 144/151/144 4/9/4 54/17/54
f 142/149/142 145/150/145 54/17/54 7/21/7
f 34/72/34 89/76/89 146/152/146 144/151/144
f 89/76/89 28/34/28 132/137/132 146/152/146
f 146/152/146 132/137/132 1/1/1 46/4/46
f 144/151/144 146/152/146 46/4/46 4/9/4
f 36/85/36 93/84/93 149/153/149 148/154/148
f 93/84/93 35/83/35 147/155/147 149/153/149
f 149/153/149 147/155/147 11/30/11 59/27/59
f 148/154/148 149/153/149 59/27/59 10/26/10
f 35/83/35 98/91/98 151/156/151 147/155/147
f 98/91/98 37/90/37 150/157/150 151/156/151
f 151/156/151 150/157/150 12/37/12 64/35/64
f 147/155/147 151/156/151 64/35/64 11/30/11
f 37/90/37 102/97/102 153/158/153 150/157/150
f 102/97/102 38/96/38 152/159/152 153/158/153
f 153/158/153 152/159/152 13/160/13 68/161/68
f 150/157/150 153/158/153 68/161/68 12/37/12
f 38/96/38 106/103/106 155/162/155 152/159/152
f 106/103/106 39/102/39 154/163/154 155/162/155
f 155/162/155 154/163/154 14/164/14 72/165/72
f 152/159/152 155/162/155 72/165/72 13/160/13
f 39/111/39 110/110/110 157/166/157 154/167/154
f 110/110/110 40/109/40 156/168/156 157/166/157
f 157/166/157 156/168/156 15/58/15 76/56/76
f 154/167/154 157/166/157 76/56/76 14/52/14
f 40/109/40 114/117/114 159/169/159 156/168/156
f 114/117/114 41/116/41 158/170/158 159/169/159
f 159/169/159 158/170/158 16/64/16 80/62/80
f 156/168/156 159/169/159 80/62/80 15/58/15
f 41/116/41 118/123/118 161/171/161 158/170/158
f 118/123/118 42/122/42 160/172/160 161/171/161
f 161/171/161 160/172/160 17/70/17 84/68/84
f 158/170/158 161/171/161 84/68/84 16/64/16
f 42/122/42 121/126/121 162/173/162 160/172/160
f 121/126/121 36/85/36 148/154/148 162/173/162
f 162/173/162 148/154/148 10/26/10 88/74/88
f 160/172/160 162/173/162 88/74/88 17/70/17

 