<svg xmlns="http://www.w3.org/2000/svg" viewBox="0 0 51.58 51.56"><defs><style>.cls-1{fill:#fff;}</style></defs><title>Asset 2</title><g id="Layer_2" data-name="Layer 2"><g id="Layer_1-2" data-name="Layer 1"><path class="cls-1" d="M49.88,41.68a5.78,5.78,0,0,1-4.07,9.88,5.85,5.85,0,0,1-4.13-1.69L25.82,34,10,49.88a6.06,6.06,0,0,1-4.13,1.69A6,6,0,0,1,1.7,49.88a5.79,5.79,0,0,1,0-8.19L17.62,25.82,1.7,9.89a5.79,5.79,0,0,1,0-8.19A5.86,5.86,0,0,1,10,1.7L25.82,17.56,41.68,1.7a5.79,5.79,0,1,1,8.19,8.19L34,25.82Z"/></g></g></svg>